# xmcd CD database file
#
# Track frame offsets:
#	150
#	13872
#	27900
#	45515
#	58877
#	74527
#	90667
#	103435
#	121730
#	138295
#
# Disc length: 2020 seconds
#
# Revision: 0
# Processed by: cddbd v1.5.2PL0 Copyright (c) Steve Scherf et al.
# Submitted via: CDex 1.51
#
DISCID=8b07e20a
DTITLE=Curt Powers - First Tyme Around
DYEAR=1900
DGENRE=Country
TTITLE0=Cowgirl Sruttin'
TTITLE1=Love Will Find a Way
TTITLE2=Cowboy Lady
TTITLE3=Between a Rock and a Roll
TTITLE4=Like Before
TTITLE5=Lonely, Lonely Man
TTITLE6=Just Wanna Be Loved By You
TTITLE7=Weekend Situation
TTITLE8=Joe Keifer's Crew
TTITLE9=Love Don't Know the Difference
EXTD=
EXTT0=
EXTT1=
EXTT2=
EXTT3=
EXTT4=
EXTT5=
EXTT6=
EXTT7=
EXTT8=
EXTT9=
PLAYORDER=
